{
  "accessors": [
    {
      "bufferView": 2,
      "componentType": 5126,
      "count": 5862,
      "max": [
        26.031312942504883,
        17.87493133544922,
        132.53570556640625
      ],
      "min": [
        -24.583524703979492,
        -21.66722297668457,
        104.58953094482422
      ],
      "type": "VEC3"
    },
    {
      "bufferView": 2,
      "byteOffset": 70344,
      "componentType": 5126,
      "count": 5862,
      "max": [
        0.9999308586120605,
        0.9987058639526367,
        0.9989218711853027
      ],
      "min": [
        -0.9999308586120605,
        -0.9996615052223206,
        -0.9992864727973938
      ],
      "type": "VEC3"
    },
    {
      "bufferView": 3,
      "componentType": 5126,
      "count": 5862,
      "max": [
        0.9993870854377747,
        0.9999151825904846,
        0.9997557401657104,
        1.0
      ],
      "min": [
        -0.9993870854377747,
        -0.9988982081413269,
        -0.9990460276603699,
        -1.0
      ],
      "type": "VEC4"
    },
    {
      "bufferView": 1,
      "componentType": 5126,
      "count": 5862,
      "max": [
        0.9880449771881104,
        0.6320469975471497
      ],
      "min": [
        0.013989999890327454,
        0.012908999808132648
      ],
      "type": "VEC2"
    },
    {
      "bufferView": 0,
      "componentType": 5125,
      "count": 30315,
      "type": "SCALAR"
    },
    {
      "bufferView": 2,
      "byteOffset": 140688,
      "componentType": 5126,
      "count": 821,
      "max": [
        16.878023147583008,
        167.79835510253906,
        14.09244155883789
      ],
      "min": [
        -15.96855354309082,
        147.10821533203125,
        -13.213726043701172
      ],
      "type": "VEC3"
    },
    {
      "bufferView": 2,
      "byteOffset": 150540,
      "componentType": 5126,
      "count": 821,
      "max": [
        0.9998013377189636,
        0.9750137329101563,
        0.9986639022827148
      ],
      "min": [
        -0.9997031092643738,
        -0.961575448513031,
        -0.9995906352996826
      ],
      "type": "VEC3"
    },
    {
      "bufferView": 3,
      "byteOffset": 93792,
      "componentType": 5126,
      "count": 821,
      "max": [
        0.9999486207962036,
        0.9789609313011169,
        0.9873348474502563,
        1.0
      ],
      "min": [
        -0.9999973773956299,
        -0.9991713762283325,
        -0.9777911305427551,
        1.0
      ],
      "type": "VEC4"
    },
    {
      "bufferView": 1,
      "byteOffset": 46896,
      "componentType": 5126,
      "count": 821,
      "max": [
        0.9921079874038696,
        0.9913679957389832
      ],
      "min": [
        0.00989300012588501,
        0.27536699175834656
      ],
      "type": "VEC2"
    },
    {
      "bufferView": 0,
      "byteOffset": 121260,
      "componentType": 5125,
      "count": 4128,
      "type": "SCALAR"
    },
    {
      "bufferView": 2,
      "byteOffset": 160392,
      "componentType": 5126,
      "count": 4242,
      "max": [
        21.04921531677246,
        157.56141662597656,
        18.58894920349121
      ],
      "min": [
        -20.889177322387695,
        75.08711242675781,
        -15.713558197021484
      ],
      "type": "VEC3"
    },
    {
      "bufferView": 2,
      "byteOffset": 211296,
      "componentType": 5126,
      "count": 4242,
      "max": [
        0.9996276497840881,
        0.9992669820785522,
        0.9999217391014099
      ],
      "min": [
        -0.9996276497840881,
        -0.9943506717681885,
        -0.9998843669891357
      ],
      "type": "VEC3"
    },
    {
      "bufferView": 3,
      "byteOffset": 106928,
      "componentType": 5126,
      "count": 4242,
      "max": [
        0.9996550679206848,
        0.9999400973320007,
        0.9991692900657654,
        1.0
      ],
      "min": [
        -0.99965500831604,
        -0.9996015429496765,
        -0.9998812675476074,
        -1.0
      ],
      "type": "VEC4"
    },
    {
      "bufferView": 1,
      "byteOffset": 53464,
      "componentType": 5126,
      "count": 4242,
      "max": [
        0.9909629821777344,
        0.9801179766654968
      ],
      "min": [
        0.053853001445531845,
        0.22129499912261963
      ],
      "type": "VEC2"
    },
    {
      "bufferView": 0,
      "byteOffset": 137772,
      "componentType": 5125,
      "count": 21390,
      "type": "SCALAR"
    },
    {
      "bufferView": 2,
      "byteOffset": 262200,
      "componentType": 5126,
      "count": 6298,
      "max": [
        29.381107330322266,
        23.794815063476563,
        23.440532684326172
      ],
      "min": [
        -24.367511749267578,
        -3.286530017852783,
        -9.754910469055176
      ],
      "type": "VEC3"
    },
    {
      "bufferView": 2,
      "byteOffset": 337776,
      "componentType": 5126,
      "count": 6298,
      "max": [
        0.9999823570251465,
        0.999786376953125,
        0.9999396204948425
      ],
      "min": [
        -0.9999823570251465,
        -0.9999792575836182,
        -0.9996574521064758
      ],
      "type": "VEC3"
    },
    {
      "bufferView": 3,
      "byteOffset": 174800,
      "componentType": 5126,
      "count": 6298,
      "max": [
        0.9999759197235107,
        0.9939298629760742,
        0.9958263039588928,
        1.0
      ],
      "min": [
        -0.9999759197235107,
        -0.9994916915893555,
        -0.9981706738471985,
        -1.0
      ],
      "type": "VEC4"
    },
    {
      "bufferView": 1,
      "byteOffset": 87400,
      "componentType": 5126,
      "count": 6298,
      "max": [
        0.9893209934234619,
        0.9826499819755554
      ],
      "min": [
        0.02735299989581108,
        0.015293000265955925
      ],
      "type": "VEC2"
    },
    {
      "bufferView": 0,
      "byteOffset": 223332,
      "componentType": 5125,
      "count": 35730,
      "type": "SCALAR"
    },
    {
      "bufferView": 2,
      "byteOffset": 413352,
      "componentType": 5126,
      "count": 2720,
      "max": [
        55.53049087524414,
        109.77680206298828,
        28.553560256958008
      ],
      "min": [
        -55.53049087524414,
        89.85150909423828,
        11.82370376586914
      ],
      "type": "VEC3"
    },
    {
      "bufferView": 2,
      "byteOffset": 445992,
      "componentType": 5126,
      "count": 2720,
      "max": [
        0.9999192357063293,
        0.9931723475456238,
        0.9983563423156738
      ],
      "min": [
        -0.9999192357063293,
        -0.993272602558136,
        -0.9904356598854065
      ],
      "type": "VEC3"
    },
    {
      "bufferView": 3,
      "byteOffset": 275568,
      "componentType": 5126,
      "count": 2720,
      "max": [
        0.9967516660690308,
        0.9967939257621765,
        0.9955788850784302,
        1.0
      ],
      "min": [
        -0.9967516660690308,
        -0.9986864924430847,
        -0.990403950214386,
        -1.0
      ],
      "type": "VEC4"
    },
    {
      "bufferView": 1,
      "byteOffset": 137784,
      "componentType": 5126,
      "count": 2720,
      "max": [
        0.9439359903335571,
        0.978177011013031
      ],
      "min": [
        0.008481999859213829,
        0.013876000419259071
      ],
      "type": "VEC2"
    },
    {
      "bufferView": 0,
      "byteOffset": 366252,
      "componentType": 5125,
      "count": 14544,
      "type": "SCALAR"
    },
    {
      "bufferView": 2,
      "byteOffset": 478632,
      "componentType": 5126,
      "count": 6880,
      "max": [
        51.44598388671875,
        167.0997314453125,
        19.266204833984375
      ],
      "min": [
        -51.57102966308594,
        95.61808776855469,
        -16.81383514404297
      ],
      "type": "VEC3"
    },
    {
      "bufferView": 2,
      "byteOffset": 561192,
      "componentType": 5126,
      "count": 6880,
      "max": [
        0.9995608925819397,
        0.9997967481613159,
        0.999970018863678
      ],
      "min": [
        -0.9995241165161133,
        -0.9996045231819153,
        -0.9999080896377563
      ],
      "type": "VEC3"
    },
    {
      "bufferView": 3,
      "byteOffset": 319088,
      "componentType": 5126,
      "count": 6880,
      "max": [
        0.9999937415122986,
        0.984660804271698,
        0.9996194839477539,
        1.0
      ],
      "min": [
        -0.9999762177467346,
        -0.9813958406448364,
        -0.9999422430992126,
        -1.0
      ],
      "type": "VEC4"
    },
    {
      "bufferView": 1,
      "byteOffset": 159544,
      "componentType": 5126,
      "count": 6880,
      "max": [
        0.9892079830169678,
        0.988644003868103
      ],
      "min": [
        0.019499000161886215,
        0.038711998611688614
      ],
      "type": "VEC2"
    },
    {
      "bufferView": 0,
      "byteOffset": 424428,
      "componentType": 5125,
      "count": 39084,
      "type": "SCALAR"
    },
    {
      "bufferView": 2,
      "byteOffset": 643752,
      "componentType": 5126,
      "count": 4473,
      "max": [
        22.083755493164063,
        114.7777099609375,
        16.131277084350586
      ],
      "min": [
        -21.436769485473633,
        8.357879638671875,
        -11.391162872314453
      ],
      "type": "VEC3"
    },
    {
      "bufferView": 2,
      "byteOffset": 697428,
      "componentType": 5126,
      "count": 4473,
      "max": [
        0.9996190071105957,
        0.9972716569900513,
        0.999754011631012
      ],
      "min": [
        -0.9995256662368774,
        -0.9974223375320435,
        -0.9999743700027466
      ],
      "type": "VEC3"
    },
    {
      "bufferView": 3,
      "byteOffset": 429168,
      "componentType": 5126,
      "count": 4473,
      "max": [
        0.9999409914016724,
        0.9547059535980225,
        0.9989118576049805,
        1.0
      ],
      "min": [
        -0.9978731870651245,
        -0.9631128311157227,
        -0.9990087747573853,
        -1.0
      ],
      "type": "VEC4"
    },
    {
      "bufferView": 1,
      "byteOffset": 214584,
      "componentType": 5126,
      "count": 4473,
      "max": [
        0.7378960251808167,
        0.994504988193512
      ],
      "min": [
        0.12019799649715424,
        0.47740501165390015
      ],
      "type": "VEC2"
    },
    {
      "bufferView": 0,
      "byteOffset": 580764,
      "componentType": 5125,
      "count": 24231,
      "type": "SCALAR"
    }
  ],
  "asset": {
    "extras": {
      "author": "deymar (https://sketchfab.com/deymar)",
      "license": "CC-BY-4.0 (http://creativecommons.org/licenses/by/4.0/)",
      "source": "https://sketchfab.com/3d-models/demo-set-of-tactical-light-armor-5999a2d0e5c14de5b74fa139329d36f3",
      "title": "demo set of tactical light armor"
    },
    "generator": "Sketchfab-13.15.0",
    "version": "2.0"
  },
  "bufferViews": [
    {
      "buffer": 0,
      "byteLength": 677688,
      "name": "floatBufferViews",
      "target": 34963
    },
    {
      "buffer": 0,
      "byteLength": 250368,
      "byteOffset": 677688,
      "byteStride": 8,
      "name": "floatBufferViews",
      "target": 34962
    },
    {
      "buffer": 0,
      "byteLength": 751104,
      "byteOffset": 928056,
      "byteStride": 12,
      "name": "floatBufferViews",
      "target": 34962
    },
    {
      "buffer": 0,
      "byteLength": 500736,
      "byteOffset": 1679160,
      "byteStride": 16,
      "name": "floatBufferViews",
      "target": 34962
    }
  ],
  "buffers": [
    {
      "byteLength": 2179896,
      "uri": "scene.bin"
    }
  ],
  "images": [
    {
      "uri": "textures/armor_baseColor.jpeg"
    },
    {
      "uri": "textures/armor_metallicRoughness.png"
    },
    {
      "uri": "textures/armor_normal.png"
    },
    {
      "uri": "textures/lambert1_baseColor.jpeg"
    },
    {
      "uri": "textures/lambert1_metallicRoughness.png"
    },
    {
      "uri": "textures/lambert1_normal.png"
    },
    {
      "uri": "textures/boots_baseColor.jpeg"
    },
    {
      "uri": "textures/boots_metallicRoughness.png"
    },
    {
      "uri": "textures/boots_normal.png"
    },
    {
      "uri": "textures/razgruz_baseColor.jpeg"
    },
    {
      "uri": "textures/razgruz_metallicRoughness.png"
    },
    {
      "uri": "textures/razgruz_normal.png"
    }
  ],
  "materials": [
    {
      "doubleSided": true,
      "name": "armor",
      "normalTexture": {
        "index": 2
      },
      "pbrMetallicRoughness": {
        "baseColorTexture": {
          "index": 0
        },
        "metallicRoughnessTexture": {
          "index": 1
        }
      }
    },
    {
      "doubleSided": true,
      "name": "lambert1",
      "normalTexture": {
        "index": 5
      },
      "pbrMetallicRoughness": {
        "baseColorTexture": {
          "index": 3
        },
        "metallicRoughnessTexture": {
          "index": 4
        }
      }
    },
    {
      "doubleSided": true,
      "name": "boots",
      "normalTexture": {
        "index": 8
      },
      "pbrMetallicRoughness": {
        "baseColorTexture": {
          "index": 6
        },
        "metallicRoughnessTexture": {
          "index": 7
        }
      }
    },
    {
      "doubleSided": true,
      "name": "razgruz",
      "normalTexture": {
        "index": 11
      },
      "pbrMetallicRoughness": {
        "baseColorTexture": {
          "index": 9
        },
        "metallicRoughnessTexture": {
          "index": 10
        }
      }
    }
  ],
  "meshes": [
    {
      "name": "defaultMaterial",
      "primitives": [
        {
          "attributes": {
            "NORMAL": 1,
            "POSITION": 0,
            "TANGENT": 2,
            "TEXCOORD_0": 3
          },
          "indices": 4,
          "material": 3,
          "mode": 4
        }
      ]
    },
    {
      "name": "defaultMaterial",
      "primitives": [
        {
          "attributes": {
            "NORMAL": 6,
            "POSITION": 5,
            "TANGENT": 7,
            "TEXCOORD_0": 8
          },
          "indices": 9,
          "material": 3,
          "mode": 4
        }
      ]
    },
    {
      "name": "defaultMaterial",
      "primitives": [
        {
          "attributes": {
            "NORMAL": 11,
            "POSITION": 10,
            "TANGENT": 12,
            "TEXCOORD_0": 13
          },
          "indices": 14,
          "material": 3,
          "mode": 4
        }
      ]
    },
    {
      "name": "defaultMaterial",
      "primitives": [
        {
          "attributes": {
            "NORMAL": 16,
            "POSITION": 15,
            "TANGENT": 17,
            "TEXCOORD_0": 18
          },
          "indices": 19,
          "material": 2,
          "mode": 4
        }
      ]
    },
    {
      "name": "defaultMaterial",
      "primitives": [
        {
          "attributes": {
            "NORMAL": 21,
            "POSITION": 20,
            "TANGENT": 22,
            "TEXCOORD_0": 23
          },
          "indices": 24,
          "material": 1,
          "mode": 4
        }
      ]
    },
    {
      "name": "defaultMaterial",
      "primitives": [
        {
          "attributes": {
            "NORMAL": 26,
            "POSITION": 25,
            "TANGENT": 27,
            "TEXCOORD_0": 28
          },
          "indices": 29,
          "material": 0,
          "mode": 4
        }
      ]
    },
    {
      "name": "defaultMaterial",
      "primitives": [
        {
          "attributes": {
            "NORMAL": 31,
            "POSITION": 30,
            "TANGENT": 32,
            "TEXCOORD_0": 33
          },
          "indices": 34,
          "material": 0,
          "mode": 4
        }
      ]
    }
  ],
  "nodes": [
    {
      "children": [
        1
      ],
      "matrix": [
        0.010143585503101349,
        0.0,
        0.0,
        0.0,
        0.0,
        2.252328435559414e-18,
        -0.010143585503101349,
        0.0,
        0.0,
        0.010143585503101349,
        2.252328435559414e-18,
        0.0,
        0.0,
        0.0,
        0.0,
        1.0
      ],
      "name": "Sketchfab_model"
    },
    {
      "children": [
        2,
        4,
        9,
        11,
        13,
        15
      ],
      "matrix": [
        1.0,
        0.0,
        0.0,
        0.0,
        0.0,
        -4.371139006309477e-08,
        0.999999999999999,
        0.0,
        0.0,
        -0.999999999999999,
        -4.371139006309477e-08,
        0.0,
        0.0,
        0.0,
        0.0,
        1.0
      ],
      "name": "Collada visual scene group"
    },
    {
      "children": [
        3
      ],
      "matrix": [
        1.0,
        0.0,
        0.0,
        0.0,
        0.0,
        0.0,
        -1.0,
        0.0,
        0.0,
        1.0,
        0.0,
        0.0,
        0.0,
        0.0,
        0.0,
        1.0
      ],
      "name": "polySurface412"
    },
    {
      "mesh": 0,
      "name": "defaultMaterial"
    },
    {
      "children": [
        5,
        7
      ],
      "name": "group3"
    },
    {
      "children": [
        6
      ],
      "matrix": [
        1.0,
        0.0,
        0.0,
        0.0,
        0.0,
        1.0,
        0.0,
        0.0,
        0.0,
        0.0,
        1.0,
        0.0,
        0.0,
        1.95428,
        0.0,
        1.0
      ],
      "name": "polySurface409"
    },
    {
      "mesh": 1,
      "name": "defaultMaterial"
    },
    {
      "children": [
        8
      ],
      "matrix": [
        1.079325,
        0.0,
        0.0,
        0.0,
        0.0,
        1.0,
        0.0,
        0.0,
        0.0,
        0.0,
        1.109905,
        0.0,
        0.0,
        0.0,
        0.0,
        1.0
      ],
      "name": "polySurface410"
    },
    {
      "mesh": 2,
      "name": "defaultMaterial"
    },
    {
      "children": [
        10
      ],
      "matrix": [
        0.865223,
        0.0,
        0.0,
        0.0,
        0.0,
        0.865223,
        0.0,
        0.0,
        0.0,
        0.0,
        0.9359,
        0.0,
        -2.168943,
        1.219391,
        0.963664,
        1.0
      ],
      "name": "polySurface1"
    },
    {
      "mesh": 3,
      "name": "defaultMaterial"
    },
    {
      "children": [
        12
      ],
      "name": "df"
    },
    {
      "mesh": 4,
      "name": "defaultMaterial"
    },
    {
      "children": [
        14
      ],
      "name": "we"
    },
    {
      "mesh": 5,
      "name": "defaultMaterial"
    },
    {
      "children": [
        16
      ],
      "name": "sd"
    },
    {
      "mesh": 6,
      "name": "defaultMaterial"
    }
  ],
  "samplers": [
    {
      "magFilter": 9729,
      "minFilter": 9987,
      "wrapS": 10497,
      "wrapT": 10497
    }
  ],
  "scene": 0,
  "scenes": [
    {
      "name": "Sketchfab_Scene",
      "nodes": [
        0
      ]
    }
  ],
  "textures": [
    {
      "sampler": 0,
      "source": 0
    },
    {
      "sampler": 0,
      "source": 1
    },
    {
      "sampler": 0,
      "source": 2
    },
    {
      "sampler": 0,
      "source": 3
    },
    {
      "sampler": 0,
      "source": 4
    },
    {
      "sampler": 0,
      "source": 5
    },
    {
      "sampler": 0,
      "source": 6
    },
    {
      "sampler": 0,
      "source": 7
    },
    {
      "sampler": 0,
      "source": 8
    },
    {
      "sampler": 0,
      "source": 9
    },
    {
      "sampler": 0,
      "source": 10
    },
    {
      "sampler": 0,
      "source": 11
    }
  ]
}
